<?xml version="1.0" encoding="UTF-8"?>
<svg xmlns="http://www.w3.org/2000/svg" viewBox="0 0 64 64" width="512" height="512"><g id="car_store" data-name="car store"><path d="M49,9H46.36C44.83,7.75,37.29,2,28,2S11.18,7.75,9.64,9H5a3.009,3.009,0,0,0-3,3v6a.967.967,0,0,0,.17.55l4,6A1,1,0,0,0,7,25h4.09a5.993,5.993,0,0,0,11.82,0H42.09a5.993,5.993,0,0,0,11.82,0H61a1,1,0,0,0,1-1V22A13.012,13.012,0,0,0,49,9Zm0,2a10.982,10.982,0,0,1,7.53,3H51.41l-3-3ZM4,12a1,1,0,0,1,1-1H7.52l-1.2,3H4ZM17,28a4,4,0,1,1,4-4A4,4,0,0,1,17,28Zm10-5H22.91a5.993,5.993,0,0,0-11.82,0H7.54L4,17.7V16H7a1,1,0,0,0,.93-.63L9.68,11H27ZM13.06,9C16.09,7,21.68,4,28,4S39.91,7,42.94,9ZM33,11v1a1,1,0,0,1-1,1H29V11ZM48,28a4,4,0,1,1,4-4A4,4,0,0,1,48,28Zm12-5H53.91a5.993,5.993,0,0,0-11.82,0H29V15h3a3.009,3.009,0,0,0,3-3V11H45.59l4.7,4.71A1.033,1.033,0,0,0,51,16h7.21A10.937,10.937,0,0,1,60,22Z"/><path d="M58,48.27a3.448,3.448,0,0,0-4.42-3.31l-1.6.47a.875.875,0,0,0,.02-.16,3.448,3.448,0,0,0-4.42-3.31L43,43.31v-.04a3.448,3.448,0,0,0-4.42-3.31L29,42.78l-8.8-1.76A1.355,1.355,0,0,0,20,41H14a.937.937,0,0,0-.37.07L10,42.52V41a1.014,1.014,0,0,0-.68-.95l-6-2a1,1,0,0,0-.9.14A.983.983,0,0,0,2,39V61a.983.983,0,0,0,.42.81A.939.939,0,0,0,3,62a1.185,1.185,0,0,0,.32-.05l6-2A1.014,1.014,0,0,0,10,59V58h2.84l11.84,3.95A1.185,1.185,0,0,0,25,62H40a.919.919,0,0,0,.33-.06L55.7,56.52A3.449,3.449,0,0,0,58,53.27a3.407,3.407,0,0,0-1.1-2.49A3.456,3.456,0,0,0,58,48.27ZM8,58.28,4,59.61V40.39l4,1.33Zm40.15-14.4a1.29,1.29,0,0,1,.4-.06,1.418,1.418,0,0,1,1.18,2.25L38,48.75V47c0-.04-.02-.08-.02-.13Zm-9-2a1.29,1.29,0,0,1,.4-.06A1.451,1.451,0,0,1,41,43.27a1.415,1.415,0,0,1-.2.69l-4.19,1.23-.9-.9a1.014,1.014,0,0,0-.51-.27l-1.98-.4ZM55.04,54.63,39.83,60H25.16L13.32,56.05A1.185,1.185,0,0,0,13,56H10V44.68L14.19,43H19.9l14.61,2.92L36,47.41V49H23a1,1,0,0,0-.49,1.87l9,5A.947.947,0,0,0,32,56h8a.863.863,0,0,0,.28-.04l13.87-4.08a1.446,1.446,0,0,1,.89,2.75Zm.04-5.01-.67.21a3.341,3.341,0,0,0-.83.13L39.86,54h-7.6l-4.95-2.75.7-.25H37a1.435,1.435,0,0,0,.22-.04v.02l13.39-3.06,3.54-1.04a1.29,1.29,0,0,1,.4-.06A1.451,1.451,0,0,1,56,48.27,1.421,1.421,0,0,1,55.08,49.62Z"/><path d="M61,30H3a1,1,0,0,0-1,1,5,5,0,0,0,5,5H57a5,5,0,0,0,5-5A1,1,0,0,0,61,30Zm-4,4H7a3.014,3.014,0,0,1-2.83-2H59.83A3.014,3.014,0,0,1,57,34Z"/></g></svg>
