<svg id="car-delivery" enable-background="new 0 0 300 300" height="512" viewBox="0 0 300 300" width="512" xmlns="http://www.w3.org/2000/svg"><g><path d="m96.333 87.138c7.719 0 14-6.281 14-14s-6.281-14-14-14-14 6.281-14 14 6.281 14 14 14zm0-20c3.309 0 6 2.691 6 6s-2.691 6-6 6-6-2.691-6-6 2.691-6 6-6z"/><path d="m240.609 173.137c0-2.362-1.915-4.276-4.277-4.276s-4.276 1.915-4.276 4.276 1.915 4.276 4.276 4.276 4.277-1.914 4.277-4.276z"/><path d="m60.332 65.414c2.362 0 4.277-1.915 4.277-4.276s-1.915-4.276-4.277-4.276-4.276 1.915-4.276 4.276 1.915 4.276 4.276 4.276z"/><path d="m130.833 194.819-26.352-13.598-20.458-45.851c-.643-1.443-2.074-2.371-3.652-2.371h-43.372c-2.209 0-4 1.791-4 4s1.791 4 4 4h40.775l1.785 4h-22.56c-2.209 0-4 1.791-4 4v20.215c0 10.91 8.875 19.785 19.785 19.785h29.321l15.505 8h-.611c-2.209 0-4 1.791-4 4s1.791 4 4 4h8v16h-86.685c-2.209 0-4 1.791-4 4s1.791 4 4 4h35.728c-1.915 2.315-3.347 5.035-4.19 8h-32.853c-2.209 0-4 1.791-4 4s1.791 4 4 4h32.101c1.015 11.196 10.443 20 21.899 20s20.884-8.804 21.899-20h16.101c2.209 0 4-1.791 4-4v-42.625c0-1.496-.836-2.869-2.166-3.555zm-69.834-25.605v-16.215h22.13l12.493 28h-22.838c-6.498 0-11.785-5.287-11.785-11.785zm30 87.785c-7.719 0-14-6.281-14-14s6.281-14 14-14 14 6.281 14 14-6.281 14-14 14zm21.147-20c-.843-2.965-2.275-5.685-4.19-8h17.043v8z"/><path d="m90.999 232.999c-5.514 0-10 4.486-10 10s4.486 10 10 10 10-4.486 10-10-4.486-10-10-10zm0 12c-1.104 0-2-.896-2-2s.896-2 2-2 2 .896 2 2-.896 2-2 2z"/><path d="m145.159 155.622c.781.781 1.805 1.172 2.828 1.172s2.047-.391 2.828-1.172c1.562-1.561 1.562-4.094 0-5.656l-2.829-2.829 2.829-2.829c1.562-1.562 1.562-4.096 0-5.656-1.562-1.562-4.094-1.562-5.656 0l-2.828 2.829-2.828-2.829c-1.562-1.562-4.094-1.562-5.656 0-1.562 1.561-1.562 4.094 0 5.656l2.829 2.829-2.829 2.829c-1.562 1.562-1.562 4.096 0 5.656.781.781 1.805 1.172 2.828 1.172s2.047-.391 2.828-1.172l2.828-2.829z"/><path d="m263.405 77.317-48.004-40.004c-3.711-3.082-9.09-3.086-12.809.004l-48 40c-2.051 1.711-3.312 4.117-3.555 6.777-.238 2.66.57 5.256 2.277 7.301 3.52 4.232 9.84 4.816 14.09 1.285l1.594-1.328v41.647c0 2.209 1.789 4 4 4h72c2.211 0 4-1.791 4-4v-41.647l1.602 1.335c1.797 1.492 4.066 2.312 6.395 2.312 2.98 0 5.781-1.312 7.684-3.598 1.711-2.051 2.52-4.646 2.281-7.307-.242-2.659-1.504-5.066-3.555-6.777zm-46.406 51.682h-16v-28h16zm24 0h-16v-32c0-2.209-1.789-4-4-4h-24c-2.211 0-4 1.791-4 4v32h-16v-44.314l32-26.67 32 26.67zm17.535-42.721c-.52.627-1.188.721-1.539.721-.328 0-.82-.082-1.277-.463l-44.156-36.801c-.742-.619-1.652-.928-2.562-.928s-1.82.309-2.562.928l-44.15 36.795c-.855.711-2.117.598-2.828-.254-.457-.551-.48-1.15-.453-1.459s.156-.895.711-1.355l47.996-39.996c.742-.621 1.832-.617 2.566-.004l48 40c.555.461.684 1.047.711 1.355s.004.909-.457 1.461z"/><path d="m233.706 200.741h-45.492c-6.184 0-11.215-5.031-11.215-11.217s5.031-11.217 11.215-11.217h5.57c10.594 0 19.215-8.621 19.215-19.217v-16.092c0-2.209-1.789-4-4-4s-4 1.791-4 4v16.092c0 6.186-5.031 11.217-11.215 11.217h-5.57c-10.594 0-19.215 8.621-19.215 19.217s8.621 19.217 19.215 19.217h45.492c6.164 0 11.195 5.014 11.219 11.176l.02 5.828c.012 3.002-1.148 5.828-3.27 7.955s-4.941 3.299-7.945 3.299h-84.73c-2.211 0-4 1.791-4 4s1.789 4 4 4h84.73c5.145 0 9.98-2.008 13.613-5.652 3.633-3.646 5.621-8.486 5.602-13.631l-.02-5.828c-.039-10.557-8.66-19.147-19.219-19.147z"/></g></svg>