<?xml version="1.0" encoding="iso-8859-1"?>
<!-- Generator: Adobe Illustrator 19.0.0, SVG Export Plug-In . SVG Version: 6.00 Build 0)  -->
<svg version="1.1" id="Capa_1" xmlns="http://www.w3.org/2000/svg" xmlns:xlink="http://www.w3.org/1999/xlink" x="0px" y="0px"
	 viewBox="0 0 480 480" style="enable-background:new 0 0 480 480;" xml:space="preserve">
<g>
	<g>
		<path d="M390.768,41.832L290.728,8.48c-17.474-5.861-36.534-4.77-53.224,3.048L152,51.44V8c0-4.418-3.582-8-8-8H48
			c-4.418,0-8,3.582-8,8v416c0.035,30.913,25.087,55.965,56,56h288c30.913-0.035,55.965-25.087,56-56V110.128
			C440.031,79.129,420.187,51.602,390.768,41.832z M56,16h16v16h16V16h16v16h16V16h16v40H56V16z M424,424
			c-0.026,22.08-17.92,39.974-40,40H96c-22.08-0.026-39.974-17.92-40-40V72h88c1.122-0.005,2.229-0.251,3.248-0.72
			c0.048,0,0.096,0,0.136,0l96.888-45.248c12.979-6.078,27.797-6.937,41.392-2.4L385.704,57
			c22.884,7.602,38.318,29.015,38.296,53.128V424z"/>
	</g>
</g>
<g>
	<g>
		<path d="M248.36,291.064l-42.456-94.344c-1.812-4.029-6.548-5.827-10.578-4.014c-1.784,0.802-3.212,2.231-4.014,4.014
			l-42.456,94.344c-12.362,27.475-0.111,59.77,27.364,72.132c7.039,3.167,14.669,4.804,22.388,4.804
			c30.128,0.002,54.554-24.42,54.556-54.548C253.164,305.733,251.527,298.103,248.36,291.064z M214.44,348.592
			c-19.418,8.744-42.248,0.09-50.992-19.328c-4.533-10.068-4.533-21.596,0-31.664l35.16-78.128l35.16,78.128
			C242.512,317.018,233.858,339.848,214.44,348.592z"/>
	</g>
</g>
<g>
	<g>
		<path d="M370.648,87.472L278.472,52.88c-10.042-3.747-21.347-1.297-28.936,6.272l-1.496,1.496
			c-10.677,10.68-10.674,27.994,0.007,38.67c2.883,2.882,6.374,5.083,10.217,6.442h0l93.688,33.064
			c2.941,1.046,6.038,1.587,9.16,1.6c15.106-0.053,27.309-12.341,27.256-27.447C388.329,101.621,381.277,91.471,370.648,87.472z
			 M371.8,116.92c-2.138,5.881-8.639,8.914-14.52,6.776l-93.688-33.032c-5.896-2.094-8.978-8.57-6.884-14.466
			c0.56-1.578,1.463-3.011,2.644-4.198l1.496-1.496c3.147-3.14,7.836-4.156,12-2.6l92.176,34.496
			C370.905,104.538,373.938,111.039,371.8,116.92z"/>
	</g>
</g>
<g>
	<g>
		<path d="M372,204c-15.464,0-28,12.536-28,28v132c0,15.464,12.536,28,28,28c15.464,0,28-12.536,28-28V232
			C400,216.536,387.464,204,372,204z M384,364c0,6.627-5.373,12-12,12c-6.627,0-12-5.373-12-12V232c0-6.627,5.373-12,12-12
			c6.627,0,12,5.373,12,12V364z"/>
	</g>
</g>
<g>
	<g>
		<path d="M293.672,152.8l-66.936-24.344c-0.879-0.31-1.804-0.464-2.736-0.456h-96c-22.08,0.026-39.974,17.92-40,40v224
			c0.026,22.08,17.92,39.974,40,40h152c22.08-0.026,39.974-17.92,40-40V190.4C319.976,173.586,309.464,158.573,293.672,152.8z
			 M304,392c0,13.255-10.745,24-24,24H128c-13.255,0-24-10.745-24-24V168c0-13.255,10.745-24,24-24h94.592l65.616,23.856
			c9.463,3.469,15.765,12.465,15.792,22.544V392z"/>
	</g>
</g>
<g>
</g>
<g>
</g>
<g>
</g>
<g>
</g>
<g>
</g>
<g>
</g>
<g>
</g>
<g>
</g>
<g>
</g>
<g>
</g>
<g>
</g>
<g>
</g>
<g>
</g>
<g>
</g>
<g>
</g>
</svg>
