<svg id="Layer_1" enable-background="new 0 0 512 512" height="512" viewBox="0 0 512 512" width="512" xmlns="http://www.w3.org/2000/svg"><g><path d="m483.02 446.56-17.18-36.13c-1.65-3.46-5.2-5.7-9.04-5.7-1.49 0-2.93.32-4.29.971-2.41 1.149-4.229 3.159-5.13 5.68-.89 2.52-.75 5.229.4 7.64l17.18 36.13c1.68 3.54 2.54 7.33 2.54 11.24-.01 10.01-5.681 19.141-14.44 23.271-.01.01-.029.02-.05.02l-.02.021c-3.261 1.52-6.7 2.29-10.23 2.3-9.68-.021-18.26-5.63-22.39-14.63l-12.06-26.301c-1.63-3.55-5.189-5.84-9.09-5.84h-39.729v-20.942h20.96c3.42 0 6.56-1.721 8.409-4.601 1.851-2.88 2.101-6.46.681-9.569l-30.51-66.521c-1.631-3.55-5.19-5.84-9.091-5.84h-20.487c.058-7.85-2.824-15.718-8.663-21.693-5.674-5.809-13.236-9.008-21.294-9.008h-.001c-7.8 0-15.137 2.999-20.746 8.46-2.619 2.103-9.044 8.289-15.393 22.241h-106.854v-51.64h204.255l14.468 35.716c1.529 3.775 5.195 6.246 9.268 6.246h20.032l6.536 13.742c1.657 3.485 5.172 5.705 9.03 5.705h22.4c5.522 0 10-4.477 10-10v-20.706h20c5.522 0 10-4.477 10-10s-4.478-10-10-10h-20v-20.706c0-5.523-4.478-10-10-10l-132.041.004 89.734-91.847 7.032 7.198c1.882 1.926 4.461 3.012 7.153 3.012s5.271-1.086 7.153-3.012l28.37-29.039c.007-.007.012-.015.019-.022 19.388-19.867 19.382-52.174-.019-72.032l-13.542-13.861 23.257-18.515c2.213-1.762 3.576-4.378 3.752-7.201.177-2.823-.852-5.588-2.828-7.611l-28.371-29.04c-2.032-2.08-4.872-3.173-7.771-2.993-2.903.18-5.583 1.615-7.343 3.931l-17.81 23.438-13.177-13.486c-9.475-9.698-22.091-15.04-35.522-15.04h-.001c-13.423 0-26.032 5.335-35.505 15.022-.006.006-.013.011-.019.018l-28.37 29.039c-3.796 3.886-3.796 10.091 0 13.977l7.358 7.53-96.015 98.277c-3.796 3.885-3.796 10.091 0 13.977l25.089 25.681-61.159 62.599-55.414-.002c-5.523 0-10 4.477-10 10v71.647c0 5.523 4.477 10 10 10l149.721-.004c-4.962 17.884-8.725 42.735-8.725 77.004 0 17.086 12.738 30.471 29 30.471 16.261 0 28.999-13.385 28.999-30.471 0-47.427 13.801-72.74 16.108-76.638.108-.12.208-.245.314-.366h21.602l21.34 46.53h-15.369c-2.631 0-5.21 1.069-7.07 2.93-1.86 1.86-2.93 4.44-2.93 7.07v40.939c0 2.63 1.069 5.21 2.93 7.08 1.86 1.86 4.439 2.92 7.07 2.92h43.309l9.39 20.471c3.65 7.97 9.45 14.649 16.75 19.319 7.16 4.561 15.38 6.98 23.78 6.98h.05c6.45 0 12.971-1.48 18.86-4.271.04-.02.08-.04.13-.06l.04-.021c7.86-3.779 14.42-9.72 18.96-17.189 4.41-7.24 6.74-15.57 6.74-24.07 0-6.809-1.55-13.669-4.48-19.829zm-57.064-420.141 12.534 12.829-16.188 12.888-8.936-9.147zm6.536 301.11h-6.083l-6.536-13.742c-1.657-3.485-5.172-5.705-9.03-5.705h-19.611l-8.897-21.964h50.158v41.411zm-60.739-298.512 63.835 65.337c9.372 9.593 11.349 23.934 5.932 35.53l-104.263-106.718c4.082-2.071 8.601-3.166 13.279-3.166 8.002 0 15.537 3.202 21.217 9.017zm-49.588 7.321 106.594 109.105-14.389 14.729-106.595-109.105zm-14.185 43.558 78.223 80.066-88.863 90.956-78.223-80.066zm-70.926 137.934 14.39 14.729-32.785 33.558h-28.78zm28.37 29.039 18.808 19.251h-37.615zm-128.925 90.895h-19.999v-51.647h19.999zm168.847 8.649c-.811 1.202-19.85 30.109-19.85 88.351 0 5.203-3.091 10.471-8.999 10.471s-9-5.268-9-10.471c0-80.789 21.869-101.958 23.684-103.569.612-.381 3.57-4.136 8.315-4.136 2.626 0 5.107 1.06 6.987 2.984h.001c7.519 7.518-.802 15.871-1.138 16.37z"/><path d="m63.455 348.475-31.999 10.235c-5.26 1.682-8.161 7.311-6.478 12.571 1.358 4.248 5.289 6.956 9.522 6.956 1.009 0 2.036-.154 3.049-.478l31.999-10.235c5.26-1.682 8.161-7.311 6.478-12.571-1.682-5.261-7.312-8.163-12.571-6.478z"/><path d="m69.548 256.357-31.999-10.235c-5.26-1.684-10.889 1.218-12.571 6.478-1.683 5.26 1.218 10.889 6.478 12.571l31.999 10.235c1.013.324 2.04.478 3.049.478 4.232 0 8.164-2.708 9.522-6.956 1.683-5.26-1.218-10.888-6.478-12.571z"/><path d="m34.502 321.94h31.999c5.523 0 10-4.477 10-10 0-.014-.002-.028-.002-.042s.002-.027.002-.042c0-5.523-4.477-10-10-10h-31.999c-5.523 0-10 4.477-10 10 0 .014.002.028.002.042s-.002.027-.002.042c0 5.523 4.478 10 10 10z"/><circle cx="437.48" cy="374.09" r="10"/></g></svg>