<?xml version="1.0"?>
<svg xmlns="http://www.w3.org/2000/svg" viewBox="0 0 64 64" width="512" height="512"><g id="outline"><path d="M43,9a1,1,0,0,0,0-2,4,4,0,0,1-4-4,1,1,0,0,0-2,0,4,4,0,0,1-4,4,1,1,0,0,0,0,2,4,4,0,0,1,4,4,1,1,0,0,0,2,0A4,4,0,0,1,43,9Zm-5,.687A6.049,6.049,0,0,0,36.313,8,6.049,6.049,0,0,0,38,6.313,6.049,6.049,0,0,0,39.687,8,6.049,6.049,0,0,0,38,9.687Z"/><path d="M40,25a4,4,0,0,1,4,4,1,1,0,0,0,2,0,4,4,0,0,1,4-4,1,1,0,0,0,0-2,4,4,0,0,1-4-4,1,1,0,0,0-2,0,4,4,0,0,1-4,4,1,1,0,0,0,0,2Zm5-2.687A6.049,6.049,0,0,0,46.687,24,6.049,6.049,0,0,0,45,25.687,6.049,6.049,0,0,0,43.313,24,6.049,6.049,0,0,0,45,22.313Z"/><path d="M60.8,29.021l-23.539,4.9-9.195-7.357,2.93-23.444A1,1,0,0,0,30,2a7.557,7.557,0,0,0-5.142,2.229A5.668,5.668,0,0,1,20.991,6a4.03,4.03,0,0,1-3.272-1.691,5.981,5.981,0,0,0-9.441,0A4.038,4.038,0,0,1,5.01,6s-.161-.014-.191-.015a.967.967,0,0,0-.859.446,1,1,0,0,0-.08.965l6.707,14.9A3.961,3.961,0,0,0,9.1,28.754c.082.086.168.169.257.247a4,4,0,0,0,.933,6.614A3.723,3.723,0,0,0,10,37a3,3,0,0,0,3,3h1.041a4.516,4.516,0,0,0,1.982,3.561A19.3,19.3,0,0,1,11.44,57.344a1,1,0,0,0,.107,1.41,8.921,8.921,0,0,1,.866.9A5.513,5.513,0,0,0,17,62a7.557,7.557,0,0,0,5.142-2.229A5.668,5.668,0,0,1,26.009,58a4.03,4.03,0,0,1,3.272,1.691A5.976,5.976,0,0,0,34,62a5.425,5.425,0,0,0,3.568-1.215,1,1,0,0,0,.373-.84,21.5,21.5,0,0,0-4.133-11.161l26.934,7.182a1,1,0,0,0,.867-.173A1,1,0,0,0,62,55V30a1,1,0,0,0-1.2-.979ZM6.289,7.874A6.39,6.39,0,0,0,9.722,5.692a4.016,4.016,0,0,1,6.55,0A5.976,5.976,0,0,0,20.991,8a7.555,7.555,0,0,0,5.142-2.229A6.982,6.982,0,0,1,28.85,4.138L26.163,25.632,21.9,24.083a19.637,19.637,0,0,1,1.035-8.739,18.982,18.982,0,0,1,1.9-3.8l-1.678-1.088a21.029,21.029,0,0,0-2.1,4.2,21.508,21.508,0,0,0-1.224,8.675L16.89,22.26l-1.9-11.424-1.972.328L14.82,22H12.647ZM35.9,59.517A3.5,3.5,0,0,1,34,60a4.03,4.03,0,0,1-3.272-1.691A5.976,5.976,0,0,0,26.009,56a7.555,7.555,0,0,0-5.142,2.229A5.668,5.668,0,0,1,17,60a3.56,3.56,0,0,1-3.081-1.658c-.12-.138-.242-.278-.369-.416a21.362,21.362,0,0,0,4.525-13.16l1.933,1.105-1,6.987,1.98.284.886-6.2,1.47.84,4.885,5.863,1.538-1.282L26.136,48h4.425A19.7,19.7,0,0,1,35.9,59.517ZM60,53.7,31.258,46.034A1.021,1.021,0,0,0,31,46H24.266l-6.781-3.874A2.515,2.515,0,0,1,16.06,40H19V38H13a1,1,0,0,1-1-1,1.733,1.733,0,0,1,.363-1H17V34H12a2,2,0,0,1,0-4h4V28H12a2,2,0,0,1-2-2.108A2.119,2.119,0,0,1,12.17,24h3.654L26.5,27.884l9.871,7.9a1,1,0,0,0,.461.2L60,39.847ZM60,37.82,42.426,34.891,60,31.229Z"/></g></svg>
